<svg id="Layer_1" data-name="Layer 1" xmlns="http://www.w3.org/2000/svg" viewBox="0 0 32 32"><defs><style>.cls-1{fill:#353535;}.cls-2{fill:#fdf9f6;}</style></defs><rect class="cls-1" width="32" height="32" rx="8.55"/><rect class="cls-2" x="7.96" y="19.48" width="3.6" height="0.95" rx="0.47" transform="translate(-11.24 12.73) rotate(-44.96)"/><path class="cls-2" d="M13.33,19.11a.48.48,0,0,1,0,.67l-.6.6-2.54,2.54-.79.79a.48.48,0,0,1-.67,0h0a.48.48,0,0,1,0-.67l.79-.79,2.54-2.54.6-.6a.48.48,0,0,1,.67,0Z"/><path class="cls-2" d="M24.59,8.46a.84.84,0,0,0-.79-.78,5.72,5.72,0,0,0-.59,0h-.12a8.57,8.57,0,0,0-3.36.72,9.77,9.77,0,0,0-1.31.71,8.75,8.75,0,0,0-2.55,2.59l-.48,0-1.19-.14a1.19,1.19,0,0,0-1,.34l-.85.85-1.61,1.6-1,1-.64.63L9,16.05a.73.73,0,0,0,.47,1.25l.21,0,1.89.14,3,.23.26,3.14L15,22.64v.22a.74.74,0,0,0,1.26.46l.79-.79,1-1,.58-.57,1-1,.84-.85a1.15,1.15,0,0,0,.34-1h0L20.68,17l0-.21,0-.38A8.71,8.71,0,0,0,24.56,10c0-.27,0-.55,0-.82a.57.57,0,0,0,0-.13C24.61,8.85,24.6,8.65,24.59,8.46Zm-1.37.59a7.09,7.09,0,0,1,0,.81,7.25,7.25,0,0,1-1.63,3.85,7.15,7.15,0,0,1-1.11,1.09l-.13-1.23-.08-.74a.85.85,0,0,0-.75-.74L18.75,12l-.33,0a6.94,6.94,0,0,0-.92,1.28l1.4.16.24,2.21.12,1,0,.42.11,1,0,.16-3.14,3.14L16,17.79v0h0c.28,0,.55,0,.82-.05a8,8,0,0,0,1.63-.34l-.09-.79L18.32,16a7.78,7.78,0,0,1-2.42.41h-.38l-.35,0-.66,0h0L11,16l.87-.87,2.29-2.28,1,.11a8.74,8.74,0,0,0-.64,2.57h1.4a7.48,7.48,0,0,1,.7-2.4,7.25,7.25,0,0,1,.81-1.3,7.49,7.49,0,0,1,1.15-1.17,7.1,7.1,0,0,1,1.3-.85,7.22,7.22,0,0,1,3.31-.79Z"/><rect class="cls-2" x="10.61" y="22.13" width="3.6" height="0.95" rx="0.47" transform="translate(-12.35 15.4) rotate(-45)"/></svg>