<svg id="Layer_1" data-name="Layer 1" xmlns="http://www.w3.org/2000/svg" viewBox="0 0 2000 2000"><defs><style>.cls-1{fill:#fdf9f6;}.cls-2{fill:#353535;}</style></defs><path class="cls-1" d="M620.12,929.75v140.49a32.19,32.19,0,0,1-32.19,32.2H447.44a32.2,32.2,0,0,1-32.19-32.2V929.75a32.19,32.19,0,0,1,32.19-32.19H587.93A32.19,32.19,0,0,1,620.12,929.75Z"/><path class="cls-2" d="M468.92,1031.45l-16.8,16.77a4.24,4.24,0,0,1-6,0h0a4.25,4.25,0,0,1,0-6l16.79-16.79a4.26,4.26,0,0,1,6,0h0A4.26,4.26,0,0,1,468.92,1031.45Z"/><path class="cls-2" d="M489.49,1029.33a4.23,4.23,0,0,1,0,6l-5.36,5.34-22.75,22.78-7.06,7a4.24,4.24,0,0,1-6,0h0a4.23,4.23,0,0,1,0-6l7-7,22.78-22.78,5.34-5.36a4.25,4.25,0,0,1,6,0Z"/><path class="cls-2" d="M590.32,933.92a7.56,7.56,0,0,0-7-7c-1.75-.11-3.51-.17-5.29-.17-.37,0-.75,0-1.12,0a76.71,76.71,0,0,0-30,6.47,71.84,71.84,0,0,0-11.74,6.35,77.58,77.58,0,0,0-22.84,23.19l-4.34-.49-10.66-1.19a10.63,10.63,0,0,0-8.69,3l-7.6,7.58-14.38,14.39-8.75,8.77-5.66,5.64-1.39,1.39a6.59,6.59,0,0,0,4.18,11.23l1.95.15,16.86,1.26,27,2.05,2.33,28.16,1.35,16.13.16,2a6.59,6.59,0,0,0,11.24,4.12l7-7,8.84-8.83,5.14-5.15,9-8.94,7.59-7.59a10.61,10.61,0,0,0,3-8.66h0l-1.18-10.7-.2-1.84-.37-3.46A77.83,77.83,0,0,0,590,947.71a68.7,68.7,0,0,0,.43-7.34c0-.37,0-.75,0-1.12C590.49,937.46,590.43,935.68,590.32,933.92Zm-12.22,5.33a66,66,0,0,1-.41,7.22A65.09,65.09,0,0,1,563.14,981a64,64,0,0,1-9.95,9.72l-1.21-11-.72-6.61a7.58,7.58,0,0,0-6.68-6.7l-6.58-.76-2.88-.31a58.49,58.49,0,0,0-8.25,11.53l12.51,1.41,2.19,19.79,1,9.23.4,3.74,1,8.78.15,1.46L516,1049.42l-2.64-31.9,0-.32a.9.9,0,0,0,.4,0q3.72,0,7.31-.43a76.86,76.86,0,0,0,14.58-3l-.8-7-.61-5.52a64.56,64.56,0,0,1-14.41,3.28,67,67,0,0,1-7.28.4h-.23c-1.06,0-2.1,0-3.13-.09s-2.13-.11-3.17-.23l-5.92-.43-.26,0-31.32-2.33,7.79-7.79,20.45-20.45,9.35,1a77,77,0,0,0-5.69,23h12.54a65.37,65.37,0,0,1,13.49-33.14,66.17,66.17,0,0,1,10.29-10.47,63.38,63.38,0,0,1,11.6-7.57A64.9,64.9,0,0,1,578,939.19h.09Z"/><rect class="cls-2" x="465.18" y="1056.37" width="32.22" height="8.5" rx="4.25" transform="translate(-609.01 650.99) rotate(-45)"/><path class="cls-1" d="M746.75,930.11c11.51,0,21.56,6.7,26.37,18.84l42.49,107.16c5,12.56-4.61,24.7-16.74,24.7a17.24,17.24,0,0,1-16.12-11.3l-7.54-19.68h-59l-7.74,20.3a16.36,16.36,0,0,1-15.28,10.68,16.76,16.76,0,0,1-15.49-23.23l42.7-108.84C725,936.81,735.24,930.11,746.75,930.11Zm16.53,88.33L745.7,972.39l-17.58,46.05Z"/><path class="cls-1" d="M868.14,967.79c18.2,0,31.6,13,37.46,32.44V938.48a16.75,16.75,0,0,1,33.49,0v125.58a16.75,16.75,0,1,1-33.49,0v-15.69c-5.86,19.46-19.26,32.44-37.46,32.44-26,0-45-24.49-45-56.51S842.18,967.79,868.14,967.79Zm12.55,82.46c14.65,0,24.91-11.09,24.91-26s-10.26-26-24.91-26c-12.55,0-22.81,11.1-22.81,26S868.14,1050.25,880.69,1050.25Z"/><path class="cls-1" d="M949.55,984.53a14.3,14.3,0,0,1,14.65-14.65h8.37v-23a16.75,16.75,0,1,1,33.49,0v23h13.6a14.65,14.65,0,0,1,0,29.3h-13.6v37.67c0,9.21,4.81,13.19,13.6,12.56,8.16-.63,14.65,6.28,14.65,14.65s-6.28,13.61-14.65,14.65c-32,4.19-47.09-14-47.09-44V999.18H964.2A14.3,14.3,0,0,1,949.55,984.53Z"/><path class="cls-1" d="M1099.19,967.79c33.28,0,58.61,24.48,58.61,56.51s-25.33,56.51-58.61,56.51-58.6-24.49-58.6-56.51S1065.91,967.79,1099.19,967.79Zm0,82.46c13.61,0,23.86-11.09,23.86-26s-10.25-26-23.86-26-23.86,11.1-23.86,26S1085.59,1050.25,1099.19,1050.25Z"/><path class="cls-1" d="M1229,967.79c33.28,0,58.61,24.48,58.61,56.51s-25.33,56.51-58.61,56.51-58.6-24.49-58.6-56.51S1195.67,967.79,1229,967.79Zm0,82.46c13.61,0,23.86-11.09,23.86-26s-10.25-26-23.86-26-23.86,11.1-23.86,26S1215.35,1050.25,1229,1050.25Z"/><path class="cls-1" d="M1321,921.74a16.52,16.52,0,0,1,16.74,16.74v125.58a16.75,16.75,0,1,1-33.49,0V938.48A16.53,16.53,0,0,1,1321,921.74Z"/><path class="cls-1" d="M1377.54,1036.85a22.11,22.11,0,0,1,22,22,22,22,0,1,1-44,0A22,22,0,0,1,1377.54,1036.85Z"/><path class="cls-1" d="M1434.05,920.69a19.89,19.89,0,1,1-19.88,19.89A20,20,0,0,1,1434.05,920.69Zm0,47.1a16.53,16.53,0,0,1,16.75,16.74v79.53a16.75,16.75,0,1,1-33.49,0V984.53A16.52,16.52,0,0,1,1434.05,967.79Z"/><path class="cls-1" d="M1526.14,967.79c33.28,0,58.61,24.48,58.61,56.51s-25.33,56.51-58.61,56.51-58.6-24.49-58.6-56.51S1492.86,967.79,1526.14,967.79Zm0,82.46c13.61,0,23.86-11.09,23.86-26s-10.25-26-23.86-26-23.86,11.1-23.86,26S1512.54,1050.25,1526.14,1050.25Z"/></svg>