<svg width="1170" height="205" viewBox="0 0 1170 205" fill="none" xmlns="http://www.w3.org/2000/svg">
<path d="M204.87 32.19V172.68C204.871 176.908 204.04 181.095 202.423 185.002C200.805 188.908 198.435 192.458 195.445 195.448C192.456 198.438 188.907 200.81 185.001 202.429C181.095 204.047 176.908 204.88 172.68 204.88H32.19C23.6518 204.877 15.4641 201.484 9.42761 195.445C3.3911 189.407 -4.11743e-07 181.218 0 172.68V32.19C0 23.6527 3.39143 15.465 9.42822 9.42822C15.465 3.39143 23.6527 0 32.19 0H172.68C181.217 0 189.405 3.39143 195.442 9.42822C201.479 15.465 204.87 23.6527 204.87 32.19Z" fill="#353535"/>
<path d="M53.67 133.89L36.87 150.66C36.4762 151.054 36.0085 151.367 35.4938 151.58C34.979 151.794 34.4272 151.904 33.87 151.904C33.3127 151.904 32.761 151.794 32.2462 151.58C31.7314 151.367 31.2638 151.054 30.87 150.66C30.0761 149.863 29.6304 148.784 29.6304 147.66C29.6304 146.535 30.0761 145.456 30.87 144.66L47.66 127.87C48.4579 127.078 49.5362 126.634 50.66 126.634C51.7838 126.634 52.8621 127.078 53.66 127.87C54.4588 128.667 54.9086 129.749 54.9104 130.878C54.9123 132.007 54.4662 133.09 53.67 133.89Z" fill="#FDF9F6"/>
<path d="M74.24 131.77C74.6355 132.163 74.9493 132.63 75.1635 133.145C75.3776 133.66 75.4879 134.212 75.4879 134.77C75.4879 135.327 75.3776 135.88 75.1635 136.394C74.9493 136.909 74.6355 137.377 74.24 137.77L68.88 143.11L46.13 165.89L39.07 172.89C38.6762 173.284 38.2086 173.597 37.6938 173.81C37.179 174.024 36.6273 174.134 36.07 174.134C35.5128 174.134 34.961 174.024 34.4462 173.81C33.9314 173.597 33.4638 173.284 33.07 172.89C32.6745 172.497 32.3607 172.029 32.1465 171.514C31.9324 171 31.8221 170.447 31.8221 169.89C31.8221 169.332 31.9324 168.78 32.1465 168.265C32.3607 167.75 32.6745 167.283 33.07 166.89L40.07 159.89L62.85 137.11L68.19 131.75C68.9866 130.956 70.0654 130.51 71.19 130.51C72.3146 130.51 73.3934 130.956 74.19 131.75L74.24 131.77Z" fill="#FDF9F6"/>
<path d="M175.07 36.3599C174.94 34.5464 174.161 32.8405 172.875 31.5549C171.589 30.2692 169.884 29.4899 168.07 29.3599C166.32 29.2499 164.56 29.1899 162.78 29.1899C162.41 29.1899 162.03 29.1899 161.66 29.1899C151.326 29.3038 141.122 31.5045 131.66 35.6599C127.558 37.4077 123.628 39.5335 119.92 42.0099C110.752 48.0379 102.968 55.9418 97.08 65.2L92.74 64.71L82.08 63.52C80.4993 63.3378 78.8979 63.5127 77.3939 64.0319C75.8899 64.5511 74.5216 65.4014 73.39 66.52L65.79 74.0999L51.41 88.4899L42.66 97.2599L37 102.9L35.61 104.29C34.718 105.183 34.1011 106.313 33.8328 107.546C33.5644 108.779 33.6557 110.064 34.096 111.246C34.5362 112.429 35.3068 113.461 36.3162 114.218C37.3256 114.976 38.5313 115.428 39.79 115.52L41.74 115.67L58.6 116.93L85.6 118.98L87.93 147.14L89.28 163.27L89.44 165.27C89.541 166.526 89.9998 167.726 90.762 168.729C91.5243 169.732 92.558 170.495 93.7408 170.929C94.9235 171.362 96.2058 171.448 97.4357 171.175C98.6655 170.902 99.7914 170.283 100.68 169.39L107.68 162.39L116.52 153.56L121.66 148.41L130.66 139.47L138.25 131.88C139.366 130.752 140.214 129.389 140.733 127.891C141.252 126.392 141.429 124.796 141.25 123.22L140.07 112.52L139.87 110.68L139.5 107.22C149.259 100.938 157.49 92.552 163.589 82.6774C169.688 72.8027 173.501 61.689 174.75 50.15C175.024 47.7127 175.168 45.2625 175.18 42.8099C175.18 42.4399 175.18 42.0599 175.18 41.6899C175.24 39.8999 175.18 38.1199 175.07 36.3599ZM162.85 41.6899C162.845 44.1023 162.708 46.5125 162.44 48.9099C161.079 61.5973 156.02 73.6049 147.89 83.4399C144.936 87.0318 141.6 90.291 137.94 93.1599L136.73 82.1599L136.01 75.5499C135.821 73.8411 135.057 72.2472 133.844 71.0298C132.63 69.8123 131.038 69.0437 129.33 68.8499L122.75 68.09L119.87 67.78C116.663 71.2746 113.892 75.1463 111.62 79.3099L124.13 80.72L126.32 100.51L127.32 109.74L127.72 113.48L128.72 122.26L128.87 123.72L100.75 151.86L98.11 119.96V119.64C98.2416 119.67 98.3784 119.67 98.51 119.64C100.99 119.64 103.427 119.497 105.82 119.21C110.766 118.684 115.649 117.679 120.4 116.21L119.6 109.21L118.99 103.69C114.328 105.331 109.493 106.432 104.58 106.97C102.162 107.235 99.7321 107.369 97.3 107.37H97.07C96.01 107.37 94.97 107.37 93.94 107.28C92.91 107.19 91.81 107.17 90.77 107.05L84.85 106.62H84.59L53.27 104.29L61.06 96.4999L81.51 76.0499L90.86 77.0499C87.7881 84.3771 85.8687 92.1356 85.17 100.05H97.71C99.0371 87.9637 103.709 76.487 111.2 66.9099C114.231 63.0491 117.682 59.5375 121.49 56.4399C125.068 53.5004 128.958 50.9619 133.09 48.8699C142.26 44.1324 152.428 41.6504 162.75 41.6299H162.84L162.85 41.6899Z" fill="#FDF9F6"/>
<path d="M71.4161 151.687L54.6435 168.459C52.9838 170.119 52.9838 172.81 54.6435 174.47C56.3032 176.129 58.9942 176.129 60.6539 174.47L77.4265 157.697C79.0862 156.037 79.0862 153.346 77.4265 151.687C75.7668 150.027 73.0758 150.027 71.4161 151.687Z" fill="#FDF9F6"/>
<path d="M331.5 32.5498C343.01 32.5498 353.06 39.2498 357.87 51.3898L400.36 158.55C405.36 171.11 395.75 183.25 383.62 183.25C380.101 183.237 376.67 182.147 373.789 180.127C370.907 178.107 368.712 175.253 367.5 171.95L359.96 152.27H300.96L293.22 172.57C292.063 175.694 289.981 178.391 287.25 180.299C284.52 182.208 281.271 183.237 277.94 183.25C275.176 183.255 272.454 182.576 270.016 181.274C267.578 179.972 265.5 178.087 263.967 175.788C262.433 173.488 261.492 170.845 261.228 168.094C260.963 165.343 261.383 162.569 262.45 160.02L305.15 51.1798C309.75 39.2498 319.99 32.5498 331.5 32.5498ZM348.03 120.88L330.45 74.8298L312.87 120.88H348.03Z" fill="#262626"/>
<path d="M452.89 70.2299C471.09 70.2299 484.49 83.2299 490.35 102.67V40.9199C490.457 36.5497 492.268 32.3944 495.397 29.3412C498.525 26.2881 502.723 24.5791 507.095 24.5791C511.466 24.5791 515.665 26.2881 518.793 29.3412C521.922 32.3944 523.733 36.5497 523.84 40.9199V166.5C523.895 168.733 523.502 170.955 522.685 173.034C521.868 175.114 520.643 177.009 519.083 178.608C517.523 180.207 515.658 181.477 513.599 182.345C511.541 183.212 509.329 183.659 507.095 183.659C504.861 183.659 502.649 183.212 500.591 182.345C498.532 181.477 496.667 180.207 495.107 178.608C493.547 177.009 492.322 175.114 491.505 173.034C490.688 170.955 490.295 168.733 490.35 166.5V150.81C484.49 170.27 471.09 183.25 452.89 183.25C426.89 183.25 407.89 158.76 407.89 126.74C407.89 94.7199 426.93 70.2299 452.89 70.2299ZM465.44 152.69C480.09 152.69 490.35 141.6 490.35 126.69C490.35 111.78 480.09 100.69 465.44 100.69C452.89 100.69 442.63 111.79 442.63 126.69C442.63 141.59 452.89 152.69 465.44 152.69Z" fill="#262626"/>
<path d="M534.3 86.9699C534.252 85.0329 534.598 83.1064 535.317 81.3073C536.037 79.5081 537.114 77.8739 538.484 76.5038C539.854 75.1338 541.488 74.0565 543.287 73.3372C545.086 72.618 547.013 72.2719 548.95 72.3199H557.32V49.3199C557.265 47.0865 557.658 44.8647 558.475 42.7853C559.292 40.706 560.517 38.8111 562.077 37.2122C563.637 35.6132 565.502 34.3426 567.561 33.4751C569.619 32.6076 571.831 32.1606 574.065 32.1606C576.299 32.1606 578.511 32.6076 580.569 33.4751C582.628 34.3426 584.493 35.6132 586.053 37.2122C587.613 38.8111 588.838 40.706 589.655 42.7853C590.472 44.8647 590.865 47.0865 590.81 49.3199V72.3199H604.41C608.295 72.3199 612.022 73.8634 614.769 76.6108C617.517 79.3582 619.06 83.0845 619.06 86.9699C619.06 90.8553 617.517 94.5816 614.769 97.329C612.022 100.076 608.295 101.62 604.41 101.62H590.81V139.29C590.81 148.5 595.62 152.48 604.41 151.85C612.57 151.22 619.06 158.13 619.06 166.5C619.06 174.87 612.78 180.11 604.41 181.15C572.41 185.34 557.32 167.15 557.32 137.15V101.62H548.95C547.013 101.668 545.086 101.322 543.287 100.603C541.488 99.8833 539.854 98.806 538.484 97.4359C537.114 96.0658 536.037 94.4316 535.317 92.6325C534.598 90.8334 534.252 88.9069 534.3 86.9699Z" fill="#262626"/>
<path d="M683.94 70.23C717.22 70.23 742.55 94.7101 742.55 126.74C742.55 158.77 717.22 183.25 683.94 183.25C650.66 183.25 625.34 158.76 625.34 126.74C625.34 94.7201 650.66 70.23 683.94 70.23ZM683.94 152.69C697.55 152.69 707.8 141.6 707.8 126.69C707.8 111.78 697.55 100.69 683.94 100.69C670.33 100.69 660.08 111.79 660.08 126.69C660.08 141.59 670.34 152.69 683.94 152.69Z" fill="#262626"/>
<path d="M813.75 70.23C847.03 70.23 872.36 94.7101 872.36 126.74C872.36 158.77 847.03 183.25 813.75 183.25C780.47 183.25 755.15 158.76 755.15 126.74C755.15 94.7201 780.42 70.23 813.75 70.23ZM813.75 152.69C827.36 152.69 837.61 141.6 837.61 126.69C837.61 111.78 827.36 100.69 813.75 100.69C800.14 100.69 789.89 111.79 789.89 126.69C789.89 141.59 800.1 152.69 813.75 152.69Z" fill="#262626"/>
<path d="M905.75 24.1797C907.957 24.1501 910.147 24.5629 912.191 25.3937C914.235 26.2245 916.092 27.4564 917.653 29.0168C919.213 30.5772 920.445 32.4344 921.276 34.4788C922.107 36.5231 922.52 38.7132 922.49 40.9197V166.5C922.545 168.733 922.152 170.955 921.335 173.034C920.518 175.114 919.293 177.009 917.733 178.607C916.173 180.206 914.308 181.477 912.249 182.344C910.191 183.212 907.979 183.659 905.745 183.659C903.511 183.659 901.299 183.212 899.241 182.344C897.182 181.477 895.318 180.206 893.757 178.607C892.197 177.009 890.972 175.114 890.155 173.034C889.338 170.955 888.945 168.733 889 166.5V40.9197C888.972 38.7127 889.386 36.5224 890.218 34.478C891.05 32.4336 892.282 30.5765 893.844 29.0163C895.405 27.456 897.263 26.2242 899.308 25.3936C901.353 24.5629 903.543 24.1502 905.75 24.1797Z" fill="#262626"/>
<path d="M962.29 139.29C968.116 139.319 973.695 141.646 977.814 145.766C981.934 149.885 984.261 155.464 984.29 161.29C984.29 167.125 981.972 172.721 977.846 176.846C973.721 180.972 968.125 183.29 962.29 183.29C956.455 183.29 950.859 180.972 946.734 176.846C942.608 172.721 940.29 167.125 940.29 161.29C940.29 155.455 942.608 149.86 946.734 145.734C950.859 141.608 956.455 139.29 962.29 139.29Z" fill="#262626"/>
<path d="M1018.8 23.1299C1022.73 23.1279 1026.58 24.2928 1029.85 26.4771C1033.13 28.6615 1035.68 31.7671 1037.18 35.4014C1038.69 39.0356 1039.09 43.0352 1038.32 46.8941C1037.55 50.753 1035.66 54.298 1032.88 57.0807C1030.1 59.8634 1026.55 61.7587 1022.69 62.527C1018.84 63.2953 1014.84 62.9019 1011.2 61.3968C1007.57 59.8917 1004.46 57.3423 1002.27 54.0712C1000.09 50.8001 998.92 46.9542 998.92 43.0199C998.949 37.7554 1001.05 32.7145 1004.77 28.991C1008.5 25.2674 1013.54 23.1614 1018.8 23.1299ZM1018.8 70.2299C1021.01 70.2003 1023.2 70.6131 1025.24 71.4437C1027.29 72.2744 1029.15 73.5062 1030.71 75.0664C1032.27 76.6267 1033.5 78.4838 1034.33 80.5282C1035.16 82.5726 1035.58 84.7629 1035.55 86.9699V166.5C1035.6 168.733 1035.21 170.955 1034.39 173.034C1033.58 175.114 1032.35 177.009 1030.79 178.608C1029.23 180.207 1027.37 181.477 1025.31 182.345C1023.25 183.212 1021.04 183.659 1018.81 183.659C1016.57 183.659 1014.36 183.212 1012.3 182.345C1010.24 181.477 1008.38 180.207 1006.82 178.608C1005.26 177.009 1004.03 175.114 1003.22 173.034C1002.4 170.955 1002.01 168.733 1002.06 166.5V86.9699C1002.03 84.7634 1002.44 82.5733 1003.27 80.5289C1004.1 78.4846 1005.34 76.6274 1006.9 75.067C1008.46 73.5066 1010.31 72.2746 1012.36 71.4439C1014.4 70.6131 1016.59 70.2003 1018.8 70.2299Z" fill="#262626"/>
<path d="M1110.89 70.23C1144.17 70.23 1169.5 94.7101 1169.5 126.74C1169.5 158.77 1144.17 183.25 1110.89 183.25C1077.61 183.25 1052.29 158.76 1052.29 126.74C1052.29 94.7201 1077.61 70.23 1110.89 70.23ZM1110.89 152.69C1124.5 152.69 1134.75 141.6 1134.75 126.69C1134.75 111.78 1124.5 100.69 1110.89 100.69C1097.28 100.69 1087.03 111.79 1087.03 126.69C1087.03 141.59 1097.29 152.69 1110.89 152.69Z" fill="#262626"/>
</svg>
